<mxfile host="app.diagrams.net" agent="Mozilla/5.0 (Windows NT 10.0; Win64; x64) AppleWebKit/537.36 (KHTML, like Gecko) Chrome/131.0.0.0 Safari/537.36" version="26.0.4">
  <diagram id="C5RBs43oDa-KdzZeNtuy" name="Page-1">
    <mxGraphModel dx="819" dy="426" grid="1" gridSize="10" guides="1" tooltips="1" connect="1" arrows="1" fold="1" page="1" pageScale="1" pageWidth="827" pageHeight="1169" math="0" shadow="0">
      <root>
        <mxCell id="WIyWlLk6GJQsqaUBKTNV-0" />
        <mxCell id="WIyWlLk6GJQsqaUBKTNV-1" parent="WIyWlLk6GJQsqaUBKTNV-0" />
        <mxCell id="i5JuXaVWhdZtn7_0ikn3-7" value="" style="edgeStyle=orthogonalEdgeStyle;rounded=0;orthogonalLoop=1;jettySize=auto;html=1;" edge="1" parent="WIyWlLk6GJQsqaUBKTNV-1" source="i5JuXaVWhdZtn7_0ikn3-3" target="i5JuXaVWhdZtn7_0ikn3-6">
          <mxGeometry relative="1" as="geometry" />
        </mxCell>
        <mxCell id="i5JuXaVWhdZtn7_0ikn3-3" value="" style="strokeWidth=2;html=1;shape=mxgraph.flowchart.terminator;whiteSpace=wrap;" vertex="1" parent="WIyWlLk6GJQsqaUBKTNV-1">
          <mxGeometry x="240" y="10" width="100" height="60" as="geometry" />
        </mxCell>
        <mxCell id="i5JuXaVWhdZtn7_0ikn3-9" value="" style="edgeStyle=orthogonalEdgeStyle;rounded=0;orthogonalLoop=1;jettySize=auto;html=1;" edge="1" parent="WIyWlLk6GJQsqaUBKTNV-1" source="i5JuXaVWhdZtn7_0ikn3-6" target="i5JuXaVWhdZtn7_0ikn3-8">
          <mxGeometry relative="1" as="geometry" />
        </mxCell>
        <mxCell id="i5JuXaVWhdZtn7_0ikn3-6" value="Alarm 埋点 触发" style="whiteSpace=wrap;html=1;strokeWidth=2;" vertex="1" parent="WIyWlLk6GJQsqaUBKTNV-1">
          <mxGeometry x="230" y="150" width="120" height="60" as="geometry" />
        </mxCell>
        <mxCell id="i5JuXaVWhdZtn7_0ikn3-11" value="" style="edgeStyle=orthogonalEdgeStyle;rounded=0;orthogonalLoop=1;jettySize=auto;html=1;" edge="1" parent="WIyWlLk6GJQsqaUBKTNV-1" source="i5JuXaVWhdZtn7_0ikn3-8" target="i5JuXaVWhdZtn7_0ikn3-10">
          <mxGeometry relative="1" as="geometry" />
        </mxCell>
        <mxCell id="i5JuXaVWhdZtn7_0ikn3-8" value="最小间隔 &amp;gt; 24h" style="whiteSpace=wrap;html=1;strokeWidth=2;" vertex="1" parent="WIyWlLk6GJQsqaUBKTNV-1">
          <mxGeometry x="230" y="290" width="120" height="60" as="geometry" />
        </mxCell>
        <mxCell id="i5JuXaVWhdZtn7_0ikn3-10" value="最小间隔 &amp;gt; 24h" style="whiteSpace=wrap;html=1;strokeWidth=2;" vertex="1" parent="WIyWlLk6GJQsqaUBKTNV-1">
          <mxGeometry x="230" y="430" width="120" height="60" as="geometry" />
        </mxCell>
      </root>
    </mxGraphModel>
  </diagram>
</mxfile>
